<?xml version="1.0" encoding="utf-8"?>
<!-- Generator: Adobe Illustrator 24.0.2, SVG Export Plug-In . SVG Version: 6.00 Build 0)  -->
<svg version="1.1" id="Layer_1" xmlns="http://www.w3.org/2000/svg" xmlns:xlink="http://www.w3.org/1999/xlink" x="0px" y="0px"
	 viewBox="0 0 256 256" style="enable-background:new 0 0 256 256;" xml:space="preserve">
<style type="text/css">
	.st0{fill:#FFFFFF;}
</style>
<g>
	<path class="st0" d="M148.9,45.3l-119,74.6l28.8,60.8l13.7-3.6l5.7,42.9c0,0,40.4,9.3,37.8-4.9c-0.9-5-2-11.1-3.2-17.7
		c7.4-1.7,15.7-6.1,21.1-12.8c4.2-5.2,7.9-13.4,5.5-24.9l56.7-14.8L148.9,45.3z M127.9,180.3c-4.4,5.5-10.9,8.8-16.4,10.1
		c-1.3-7.5-2.7-15.3-3.9-22.5l24.6-6.4C133.5,168.8,132.2,175,127.9,180.3z M61.5,111.7l85.2-47.1l6.5,12.8L61.5,111.7z"/>
	<path class="st0" d="M166.6,39.4c-1.8-3.8-6.1-5.7-9.7-4.2c-3.5,1.5-4.9,5.9-3.1,9.7l45.8,96.7c1.8,3.8,6.1,5.7,9.7,4.2
		c3.5-1.5,4.9-5.9,3.1-9.7L166.6,39.4z"/>
	<path class="st0" d="M24.4,122.6c-6.5,2.8-5.7,18.2,2,34.3c7.6,16.1,19.1,26.9,25.7,24.1c0.6-0.2,1.1-0.6,1.6-1l-27.4-57.8
		C25.6,122.3,25,122.4,24.4,122.6z"/>
	<path class="st0" d="M208,79.7c5-1.9,10-3.7,14.9-5.6c2.7-1-0.5-8.8-3.2-7.8c-5,1.8-10,3.7-14.9,5.5C202,72.8,205.2,80.7,208,79.7z
		"/>
	<path class="st0" d="M233,102.1c-6.5-3.6-13.1-7.1-19.6-10.7c-3.4-1.9-2.8,5.7,0.6,7.6c6.5,3.6,13.1,7.1,19.6,10.7
		C237.1,111.5,236.4,104,233,102.1z"/>
	<path class="st0" d="M200.7,60.5c2.3-6.8,4.6-13.7,6.8-20.5c1.2-3.6-3.7-9.5-4.9-6c-2.3,6.8-4.6,13.7-6.8,20.5
		C194.6,58.1,199.5,64.1,200.7,60.5z"/>
</g>
</svg>
