<?xml version="1.0" encoding="utf-8"?>
<!-- Generator: Adobe Illustrator 24.0.2, SVG Export Plug-In . SVG Version: 6.00 Build 0)  -->
<svg version="1.1" id="Layer_1" xmlns="http://www.w3.org/2000/svg" xmlns:xlink="http://www.w3.org/1999/xlink" x="0px" y="0px"
	 viewBox="0 0 256 256" style="enable-background:new 0 0 256 256;" xml:space="preserve">
<style type="text/css">
	.st0{fill:#FFFFFF;}
</style>
<g>
	<path class="st0" d="M212.1,110.6V37.1H21.5v12.8H8.7v140.2c0,16.1,13.1,29.3,29.3,29.3h172.6c23.5,0,35.8-16.1,35.8-32v-76.9
		H212.1z M29.1,54.2v-8.3l174.3,0.2v137.8c0,6.3,4.3,9.6,8.5,9.6s8.5-3.4,8.5-9.8v-47.1h-12.6v-7.1h19.6v54.2
		c0,8.6-7,15.6-15.6,15.6s-15.6-7-15.6-15.6V54.2H29.1z M207.8,183.8V141h8.1v42.7c0,5.2-3.6,5.3-4.1,5.3
		C210.4,189,207.8,187.9,207.8,183.8z M238.7,187.5c0,11.7-8.8,24.3-28.2,24.3H38c-11.9,0-21.6-9.7-21.6-21.6V58.7h175.6v125
		c0,11,9,20,20,20s20-9,20-20V125h-24.1v-6.8h30.9V187.5z M105,81h71.8v4.4H105V81z M105,107.2h71.8v4.4H105V107.2z M105,133.5h71.8
		v4.4H105V133.5z M105,159.8h71.8v4.4H105V159.8z M31.8,186.1h145v4.4h-145V186.1z M91.4,78H32.9v86.5h58.5V78z M86.9,160H37.3V82.4
		h49.6V160z M79.7,152.8H44.5V89.6h35.2V152.8z"/>
</g>
</svg>
