<?xml version="1.0" encoding="utf-8"?>
<!-- Generator: Adobe Illustrator 24.0.2, SVG Export Plug-In . SVG Version: 6.00 Build 0)  -->
<svg version="1.1" id="Layer_1" xmlns="http://www.w3.org/2000/svg" xmlns:xlink="http://www.w3.org/1999/xlink" x="0px" y="0px"
	 viewBox="0 0 318.6 157.7" style="enable-background:new 0 0 318.6 157.7;" xml:space="preserve">
<style type="text/css">
	.st0{fill:#28ABA4;}
</style>
<g>
	<path class="st0" d="M211.3,82.8l-89.1-64.2c1.3-0.4,2.8-0.6,4.2-0.6h163c3.1,0,6,0.9,8.4,2.5L211.3,82.8z M303.9,29l-92.4,66.7
		l-0.2,0.1l-0.2-0.2l-90.8-65.5l-6.7-4.9l-0.5-0.4H42.2c-3.7,0-6.8,3-6.8,6.8v2.9c0,3.7,3,6.8,6.8,6.8h69.2h2.3h5.5
		c3.7,0,6.8,3,6.8,6.8v2.9c0,3.7-3,6.8-6.8,6.8h-7.8H88.2c-3.7,0-6.8,3-6.8,6.8v2.9c0,3.7,3,6.8,6.8,6.8h23.2h36.8
		c3.7,0,6.8,3,6.8,6.8v2.9c0,3.7-3,6.8-6.8,6.8h-36.8H58.1c-3.7,0-6.8,3-6.8,6.8v2.9c0,3.7,3,6.8,6.8,6.8h53.3h41h27.7
		c3.7,0,6.8,3,6.8,6.8v2.9c0,3.7-3,6.8-6.8,6.8h-68.8v0H85.8c-3.7,0-6.8,3-6.8,6.8v2.9c0,3.7,3,6.8,6.8,6.8h40.6h53.8h109.2
		c8.3,0,15-6.6,15-14.8V32.8C304.5,31.5,304.3,30.2,303.9,29z M22.3,24.9c-4.5,0-8.2,3.7-8.2,8.2c0,4.5,3.7,8.2,8.2,8.2
		s8.2-3.7,8.2-8.2C30.5,28.6,26.8,24.9,22.3,24.9z M76.5,65.8c0-4.5-3.7-8.2-8.2-8.2c-4.5,0-8.2,3.7-8.2,8.2c0,4.5,3.7,8.2,8.2,8.2
		C72.8,74,76.5,70.4,76.5,65.8z M38.2,90.5c-4.5,0-8.2,3.7-8.2,8.2c0,4.5,3.7,8.2,8.2,8.2s8.2-3.7,8.2-8.2
		C46.4,94.1,42.7,90.5,38.2,90.5z M65.9,123.3c-4.5,0-8.2,3.7-8.2,8.2c0,4.5,3.7,8.2,8.2,8.2c4.5,0,8.2-3.7,8.2-8.2
		C74.1,126.9,70.5,123.3,65.9,123.3z"/>
</g>
</svg>
