<?xml version="1.0" encoding="utf-8"?>
<!-- Generator: Adobe Illustrator 24.0.2, SVG Export Plug-In . SVG Version: 6.00 Build 0)  -->
<svg version="1.1" id="Layer_1" xmlns="http://www.w3.org/2000/svg" xmlns:xlink="http://www.w3.org/1999/xlink" x="0px" y="0px"
	 viewBox="0 0 459.8 118" style="enable-background:new 0 0 459.8 118;" xml:space="preserve">
<style type="text/css">
	.st0{fill:#FFFFFF;}
</style>
<g>
	<g>
		<path class="st0" d="M123.6,30.8c-15,0-27.9,8.9-33.7,21.7l4.3,7.3c3.5-13,15.3-22.5,29.4-22.5c15.6,0,28.5,11.8,30.2,26.9H122
			v6.5h1.6v0h30.3h4.5h2.1c0.1-1,0.1-2,0.1-3C160.6,47.3,144,30.8,123.6,30.8z"/>
		<path class="st0" d="M123.6,98.1c-12.5,0-23.2-7.5-27.9-18.3l-1-1.8l-7.8-13.8L86,62.7l-8.4-14.1l0,0v0
			C71.1,37.9,59.3,30.8,46,30.8c-12.6,0-23.8,6.3-30.4,16V10.5H9v57.2v1.6h0c0.8,19.7,17,35.4,36.9,35.4c15,0,27.9-8.9,33.7-21.8
			l-4.2-7.6C72,88.4,60.1,98.1,46,98.1c-14.4,0-26.4-10-29.6-23.4c-0.5-2.2-0.8-4.6-0.8-7c0-1,0.1-2.1,0.2-3.1c0,0,0,0,0,0
			C17.3,49.3,30.2,37.3,46,37.3c10.8,0,20.3,5.6,25.7,14.1l0,0l0.1,0.1c0.6,0.9,1.1,1.8,1.6,2.8l2.1,3.8l7.4,13.1l2.7,4.7l6.5,10.6
			l0,0c6.4,10.8,18.3,18.1,31.8,18.1c13.9,0,25.9-7.6,32.2-18.9h-7.7C142.6,93.3,133.7,98.1,123.6,98.1z"/>
	</g>
	<g>
		<path class="st0" d="M193.9,47.3c-1.9,0-3.8-0.1-5.7-0.2c-1.9-0.1-3.8-0.4-5.9-0.8V12.7c1.6-0.3,3.3-0.5,5.2-0.7
			c1.9-0.2,3.7-0.2,5.3-0.2c2.2,0,4.2,0.2,6.1,0.5c1.8,0.3,3.4,0.9,4.8,1.6c1.3,0.8,2.4,1.8,3.1,3c0.7,1.2,1.1,2.8,1.1,4.6
			c0,2.8-1.3,4.9-4,6.5c2.2,0.8,3.7,2,4.5,3.4c0.8,1.4,1.2,3,1.2,4.8c0,3.6-1.3,6.4-4,8.2C203,46.4,199.1,47.3,193.9,47.3z
			 M189.9,25.8h3.8c2.4,0,4.1-0.3,5.1-0.9c1-0.6,1.5-1.6,1.5-3c0-1.4-0.5-2.4-1.6-2.9c-1.1-0.6-2.6-0.8-4.7-0.8c-0.7,0-1.4,0-2.1,0
			c-0.8,0-1.4,0.1-2,0.1V25.8z M189.9,31.8v8.9c0.6,0.1,1.2,0.1,1.8,0.1c0.7,0,1.4,0.1,2.2,0.1c2.3,0,4.2-0.3,5.6-1
			c1.4-0.7,2.1-1.9,2.1-3.7c0-1.6-0.6-2.7-1.8-3.4c-1.2-0.7-2.9-1-5.1-1H189.9z"/>
		<path class="st0" d="M231.2,27.2c-0.7-0.2-1.4-0.3-2.3-0.5c-0.9-0.2-1.9-0.3-2.9-0.3c-0.5,0-1,0-1.7,0.1c-0.6,0.1-1.1,0.2-1.5,0.3
			v20.1h-7.4V22c1.3-0.5,2.9-0.9,4.7-1.3c1.8-0.4,3.8-0.6,6.1-0.6c0.4,0,0.9,0,1.4,0.1c0.6,0,1.1,0.1,1.7,0.2
			c0.6,0.1,1.1,0.2,1.7,0.3c0.6,0.1,1,0.3,1.4,0.4L231.2,27.2z"/>
		<path class="st0" d="M244.6,13c0,1.4-0.4,2.4-1.3,3.2c-0.9,0.8-1.9,1.2-3.1,1.2s-2.2-0.4-3.1-1.2c-0.9-0.8-1.3-1.9-1.3-3.2
			c0-1.4,0.4-2.4,1.3-3.2c0.9-0.8,1.9-1.2,3.1-1.2s2.2,0.4,3.1,1.2C244.2,10.6,244.6,11.6,244.6,13z M243.9,46.9h-7.4V20.6h7.4V46.9
			z"/>
		<path class="st0" d="M274.1,46c-0.7,0.2-1.4,0.4-2.3,0.6c-0.9,0.2-1.8,0.3-2.7,0.5c-0.9,0.1-1.9,0.2-2.9,0.3
			c-1,0.1-1.9,0.1-2.8,0.1c-2.2,0-4.1-0.3-5.8-0.9c-1.7-0.6-3.1-1.5-4.3-2.7c-1.2-1.2-2.1-2.6-2.7-4.3c-0.6-1.7-0.9-3.6-0.9-5.7
			c0-2.1,0.3-4.1,0.8-5.8c0.5-1.7,1.3-3.2,2.3-4.4c1-1.2,2.2-2.1,3.7-2.7c1.4-0.6,3.1-0.9,5-0.9c1,0,2,0.1,2.8,0.3
			c0.8,0.2,1.6,0.5,2.5,0.8V9.3l7.4-1.2V46z M257.3,33.5c0,2.3,0.5,4.1,1.5,5.5c1,1.4,2.6,2.1,4.6,2.1c0.7,0,1.3,0,1.8-0.1
			c0.6,0,1-0.1,1.4-0.2V27.4c-0.5-0.3-1.1-0.5-1.8-0.7c-0.7-0.2-1.5-0.3-2.3-0.3C259,26.3,257.3,28.7,257.3,33.5z"/>
		<path class="st0" d="M303.8,43.6c0,4.3-1.1,7.5-3.3,9.6c-2.2,2.1-5.6,3.1-10.1,3.1c-1.6,0-3.2-0.1-4.8-0.4
			c-1.6-0.3-3.1-0.7-4.4-1.1l1.3-6.2c1.2,0.5,2.4,0.8,3.7,1.1c1.3,0.3,2.7,0.4,4.4,0.4c2.1,0,3.6-0.5,4.5-1.4
			c0.9-0.9,1.3-2.1,1.3-3.6V44c-0.8,0.4-1.6,0.6-2.5,0.8c-0.8,0.2-1.8,0.3-2.8,0.3c-3.6,0-6.4-1.1-8.3-3.2c-1.9-2.1-2.9-5.2-2.9-9
			c0-1.9,0.3-3.7,0.9-5.3c0.6-1.6,1.5-2.9,2.6-4.1c1.1-1.1,2.6-2,4.2-2.6c1.7-0.6,3.5-0.9,5.6-0.9c0.9,0,1.8,0,2.8,0.1
			c0.9,0.1,1.9,0.2,2.8,0.3c0.9,0.1,1.8,0.3,2.7,0.5c0.8,0.2,1.6,0.4,2.3,0.6V43.6z M287.5,32.9c0,4.2,1.7,6.2,5,6.2
			c0.8,0,1.5-0.1,2.1-0.3c0.7-0.2,1.2-0.4,1.7-0.7V26.2c-0.4-0.1-0.8-0.1-1.3-0.2c-0.5-0.1-1.1-0.1-1.7-0.1c-2,0-3.4,0.6-4.4,1.9
			C287.9,29.2,287.5,30.9,287.5,32.9z"/>
		<path class="st0" d="M309.5,33.9c0-2.3,0.4-4.4,1.1-6.1c0.7-1.7,1.7-3.2,2.8-4.4c1.2-1.2,2.5-2,4-2.6c1.5-0.6,3.1-0.9,4.7-0.9
			c3.7,0,6.7,1.1,8.8,3.4c2.2,2.3,3.2,5.6,3.2,10.1c0,0.4,0,0.9-0.1,1.4c0,0.5-0.1,1-0.1,1.4h-16.9c0.2,1.5,0.9,2.7,2.1,3.6
			c1.3,0.9,3,1.3,5.1,1.3c1.4,0,2.7-0.1,4-0.4c1.3-0.2,2.4-0.6,3.2-0.9l1,6c-0.4,0.2-0.9,0.4-1.6,0.6c-0.7,0.2-1.4,0.4-2.2,0.5
			c-0.8,0.2-1.7,0.3-2.6,0.4c-0.9,0.1-1.9,0.2-2.8,0.2c-2.4,0-4.4-0.3-6.2-1c-1.7-0.7-3.2-1.7-4.3-2.9c-1.1-1.2-2-2.7-2.5-4.3
			C309.8,37.7,309.5,35.9,309.5,33.9z M327,31.1c0-0.6-0.1-1.2-0.3-1.8c-0.2-0.6-0.5-1.1-0.8-1.6c-0.4-0.5-0.9-0.8-1.4-1.1
			c-0.6-0.3-1.3-0.4-2.2-0.4c-0.8,0-1.5,0.1-2.1,0.4c-0.6,0.3-1.1,0.7-1.5,1.1c-0.4,0.5-0.7,1-0.9,1.6c-0.2,0.6-0.4,1.2-0.5,1.9H327
			z"/>
		<path class="st0" d="M356,31.8c-0.7,2.5-1.4,5-2.1,7.5c-0.8,2.5-1.5,5-2.4,7.5h-5.8c-0.6-1.4-1.3-3.1-2-5c-0.7-1.9-1.4-4-2.2-6.3
			c-0.8-2.3-1.5-4.7-2.3-7.2c-0.8-2.5-1.5-5.1-2.3-7.7h7.8c0.3,1.2,0.6,2.5,0.9,3.9c0.3,1.4,0.7,2.9,1,4.4c0.4,1.5,0.7,3,1.1,4.5
			c0.4,1.5,0.8,3,1.2,4.4c0.4-1.5,0.9-3,1.3-4.5c0.4-1.5,0.8-3,1.2-4.5c0.4-1.5,0.7-2.9,1.1-4.3c0.3-1.4,0.7-2.7,0.9-3.9h5.4
			c0.3,1.2,0.6,2.5,0.9,3.9c0.3,1.4,0.7,2.8,1,4.3c0.4,1.5,0.7,3,1.1,4.5c0.4,1.5,0.8,3,1.2,4.5c0.4-1.4,0.8-2.9,1.2-4.4
			c0.4-1.5,0.8-3,1.1-4.5c0.4-1.5,0.7-3,1-4.4c0.3-1.4,0.6-2.7,0.9-3.9h7.7c-0.7,2.6-1.5,5.2-2.3,7.7c-0.8,2.5-1.6,5-2.3,7.2
			c-0.8,2.3-1.5,4.4-2.2,6.3c-0.7,1.9-1.4,3.6-2,5h-5.8c-0.8-2.5-1.6-5-2.4-7.5C357.4,36.8,356.7,34.3,356,31.8z"/>
		<path class="st0" d="M388.1,19.9c2.2,0,4,0.2,5.5,0.7c1.5,0.5,2.6,1.2,3.5,2.1c0.9,0.9,1.5,2.1,1.9,3.4c0.4,1.3,0.5,2.8,0.5,4.4
			v15.5c-1.1,0.2-2.5,0.5-4.4,0.8c-1.9,0.3-4.2,0.5-6.9,0.5c-1.7,0-3.2-0.2-4.6-0.4c-1.4-0.3-2.6-0.8-3.6-1.5
			c-1-0.7-1.8-1.6-2.3-2.7c-0.5-1.1-0.8-2.4-0.8-4c0-1.5,0.3-2.8,0.9-3.9c0.6-1.1,1.4-1.9,2.5-2.5c1-0.6,2.2-1.1,3.5-1.4
			c1.3-0.3,2.7-0.4,4.1-0.4c1,0,1.8,0,2.6,0.1c0.7,0.1,1.4,0.2,1.8,0.3v-0.7c0-1.3-0.4-2.3-1.1-3c-0.8-0.8-2.1-1.1-4-1.1
			c-1.3,0-2.5,0.1-3.7,0.3c-1.2,0.2-2.3,0.4-3.2,0.8l-0.9-6c0.4-0.1,1-0.3,1.6-0.4c0.7-0.2,1.4-0.3,2.1-0.4c0.8-0.1,1.6-0.2,2.4-0.3
			C386.4,19.9,387.2,19.9,388.1,19.9z M388.7,41.7c0.7,0,1.4,0,2.1,0c0.7,0,1.2-0.1,1.6-0.2v-5.6c-0.3-0.1-0.7-0.1-1.3-0.2
			c-0.6-0.1-1.1-0.1-1.6-0.1c-0.7,0-1.4,0-2,0.1c-0.6,0.1-1.2,0.2-1.6,0.5c-0.5,0.2-0.8,0.5-1.1,0.9c-0.3,0.4-0.4,0.9-0.4,1.5
			c0,1.2,0.4,2,1.2,2.4C386.3,41.5,387.3,41.7,388.7,41.7z"/>
		<path class="st0" d="M429,20.6c-1.5,5.1-3.1,9.8-4.7,14.2c-1.6,4.4-3.4,8.7-5.4,12.9c-0.7,1.5-1.4,2.8-2.1,3.8
			c-0.7,1-1.5,1.9-2.3,2.6c-0.8,0.7-1.8,1.2-2.8,1.5c-1.1,0.3-2.3,0.5-3.7,0.5c-1.2,0-2.2-0.1-3.2-0.3c-1-0.2-1.8-0.5-2.4-0.7
			l1.3-5.9c0.8,0.3,1.4,0.4,2,0.5c0.6,0.1,1.2,0.2,1.9,0.2c1.3,0,2.4-0.4,3.1-1.1c0.7-0.7,1.3-1.7,1.8-3c-1.7-3.3-3.4-7.1-5.1-11.2
			c-1.7-4.1-3.3-8.8-4.8-14h7.9c0.3,1.3,0.7,2.7,1.2,4.2c0.5,1.5,0.9,3,1.4,4.6c0.5,1.5,1,3.1,1.5,4.5c0.5,1.5,1,2.8,1.5,4
			c0.4-1.2,0.9-2.5,1.4-4c0.5-1.5,0.9-3,1.4-4.5c0.5-1.5,0.9-3.1,1.3-4.6c0.4-1.5,0.8-2.9,1.1-4.2H429z"/>
		<path class="st0" d="M182.3,100.6V66h23.4v6.5h-15.6v6.8H204v6.4h-13.8v8.3h16.7v6.5H182.3z"/>
		<path class="st0" d="M212.1,75.2c1.3-0.4,2.9-0.7,4.9-1c2-0.3,4.1-0.5,6.3-0.5c2.2,0,4.1,0.3,5.6,0.9c1.5,0.6,2.7,1.4,3.5,2.5
			c0.9,1.1,1.5,2.3,1.8,3.8c0.4,1.5,0.5,3.1,0.5,4.9v14.8h-7.4V86.7c0-2.4-0.3-4.1-0.9-5.1c-0.6-1-1.8-1.5-3.5-1.5
			c-0.5,0-1.1,0-1.7,0.1c-0.6,0-1.1,0.1-1.6,0.2v20.3h-7.4V75.2z"/>
		<path class="st0" d="M241.3,67.8l7.4-1.2v7.7h8.9v6.2h-8.9v9.2c0,1.6,0.3,2.8,0.8,3.7c0.5,0.9,1.7,1.4,3.3,1.4
			c0.8,0,1.6-0.1,2.5-0.2c0.8-0.1,1.6-0.4,2.3-0.6l1,5.8c-0.9,0.4-1.9,0.7-3,0.9c-1.1,0.3-2.4,0.4-4,0.4c-2,0-3.7-0.3-5-0.8
			c-1.3-0.5-2.4-1.3-3.2-2.3c-0.8-1-1.4-2.2-1.7-3.6c-0.3-1.4-0.5-2.9-0.5-4.6V67.8z"/>
		<path class="st0" d="M261.5,87.7c0-2.3,0.4-4.4,1.1-6.1c0.7-1.7,1.7-3.2,2.8-4.4c1.2-1.2,2.5-2,4-2.6c1.5-0.6,3.1-0.9,4.7-0.9
			c3.7,0,6.7,1.1,8.8,3.4c2.2,2.3,3.2,5.6,3.2,10.1c0,0.4,0,0.9,0,1.4c0,0.5-0.1,1-0.1,1.4h-16.9c0.2,1.5,0.9,2.7,2.1,3.6
			c1.3,0.9,3,1.3,5.1,1.3c1.4,0,2.7-0.1,4-0.4c1.3-0.2,2.4-0.6,3.2-0.9l1,6c-0.4,0.2-0.9,0.4-1.6,0.6c-0.7,0.2-1.4,0.4-2.2,0.5
			c-0.8,0.1-1.7,0.3-2.6,0.4c-0.9,0.1-1.9,0.2-2.8,0.2c-2.4,0-4.4-0.4-6.2-1c-1.7-0.7-3.2-1.7-4.3-2.9c-1.1-1.2-2-2.7-2.5-4.3
			C261.7,91.4,261.5,89.6,261.5,87.7z M279,84.8c0-0.6-0.1-1.2-0.3-1.8c-0.2-0.6-0.5-1.1-0.8-1.6c-0.4-0.5-0.9-0.8-1.4-1.1
			c-0.6-0.3-1.3-0.4-2.2-0.4c-0.8,0-1.5,0.1-2.1,0.4c-0.6,0.3-1.1,0.7-1.5,1.1c-0.4,0.5-0.7,1-0.9,1.6c-0.2,0.6-0.4,1.2-0.5,1.9H279
			z"/>
		<path class="st0" d="M307.7,80.9c-0.7-0.2-1.4-0.3-2.3-0.5c-0.9-0.2-1.9-0.3-2.9-0.3c-0.5,0-1,0-1.7,0.1c-0.6,0.1-1.1,0.2-1.5,0.3
			v20.1h-7.4V75.7c1.3-0.5,2.9-0.9,4.7-1.3c1.8-0.4,3.8-0.6,6.1-0.6c0.4,0,0.9,0,1.4,0.1c0.6,0.1,1.1,0.1,1.7,0.2
			c0.6,0.1,1.1,0.2,1.7,0.3c0.6,0.1,1,0.3,1.4,0.4L307.7,80.9z"/>
		<path class="st0" d="M337.4,87.5c0,2-0.3,3.9-0.8,5.5c-0.5,1.7-1.2,3.1-2.2,4.3c-1,1.2-2.2,2.1-3.6,2.8c-1.4,0.7-3.1,1-4.9,1
			c-1,0-2-0.1-2.9-0.3c-0.9-0.2-1.8-0.5-2.6-0.8v9.9H313V75.2c0.7-0.2,1.4-0.4,2.3-0.6c0.9-0.2,1.8-0.3,2.7-0.5
			c0.9-0.1,1.9-0.2,2.9-0.3c1-0.1,1.9-0.1,2.8-0.1c2.2,0,4.1,0.3,5.8,1c1.7,0.6,3.1,1.6,4.3,2.7c1.2,1.2,2.1,2.6,2.7,4.3
			C337.1,83.5,337.4,85.4,337.4,87.5z M329.8,87.7c0-2.3-0.5-4.1-1.5-5.5c-1-1.4-2.6-2.1-4.6-2.1c-0.7,0-1.3,0-1.8,0.1
			c-0.6,0-1,0.1-1.4,0.2v13.4c0.5,0.3,1.1,0.5,1.8,0.7s1.5,0.3,2.3,0.3C328.1,94.8,329.8,92.4,329.8,87.7z"/>
		<path class="st0" d="M359,80.9c-0.7-0.2-1.4-0.3-2.3-0.5c-0.9-0.2-1.9-0.3-2.9-0.3c-0.5,0-1,0-1.7,0.1c-0.6,0.1-1.1,0.2-1.5,0.3
			v20.1h-7.4V75.7c1.3-0.5,2.9-0.9,4.7-1.3c1.8-0.4,3.8-0.6,6.1-0.6c0.4,0,0.9,0,1.4,0.1c0.6,0.1,1.1,0.1,1.7,0.2
			c0.6,0.1,1.1,0.2,1.7,0.3c0.6,0.1,1,0.3,1.4,0.4L359,80.9z"/>
		<path class="st0" d="M372.4,66.7c0,1.4-0.4,2.4-1.3,3.2c-0.9,0.8-1.9,1.2-3.1,1.2c-1.2,0-2.2-0.4-3.1-1.2
			c-0.9-0.8-1.3-1.9-1.3-3.2c0-1.4,0.4-2.4,1.3-3.2c0.9-0.8,1.9-1.2,3.1-1.2c1.2,0,2.2,0.4,3.1,1.2C372,64.3,372.4,65.4,372.4,66.7z
			 M371.7,100.6h-7.4V74.3h7.4V100.6z"/>
		<path class="st0" d="M386.2,95.3c1.4,0,2.3-0.1,2.9-0.4c0.6-0.3,0.8-0.8,0.8-1.5c0-0.6-0.4-1.1-1.1-1.6c-0.7-0.4-1.8-1-3.3-1.5
			c-1.2-0.4-2.2-0.9-3.2-1.3c-0.9-0.5-1.8-1-2.4-1.7c-0.7-0.6-1.2-1.4-1.5-2.3c-0.4-0.9-0.5-2-0.5-3.2c0-2.5,0.9-4.4,2.7-5.8
			c1.8-1.4,4.3-2.1,7.5-2.1c1.6,0,3.1,0.1,4.6,0.4c1.5,0.3,2.6,0.6,3.5,0.9l-1.3,5.8c-0.9-0.3-1.8-0.6-2.8-0.8
			c-1-0.2-2.2-0.3-3.4-0.3c-2.3,0-3.5,0.6-3.5,1.9c0,0.3,0.1,0.6,0.2,0.8c0.1,0.2,0.3,0.5,0.6,0.7c0.3,0.2,0.7,0.5,1.2,0.7
			c0.5,0.3,1.2,0.5,2,0.8c1.6,0.6,3,1.2,4,1.8c1.1,0.6,1.9,1.2,2.5,1.9c0.6,0.7,1,1.4,1.3,2.3c0.3,0.8,0.4,1.8,0.4,2.9
			c0,2.6-1,4.6-2.9,5.9c-1.9,1.3-4.7,2-8.3,2c-2.3,0-4.3-0.2-5.8-0.6c-1.5-0.4-2.6-0.7-3.2-1l1.2-6c1.3,0.5,2.6,0.9,3.9,1.2
			C383.6,95.1,384.9,95.3,386.2,95.3z"/>
		<path class="st0" d="M401.7,87.7c0-2.3,0.4-4.4,1.1-6.1c0.7-1.7,1.7-3.2,2.8-4.4c1.2-1.2,2.5-2,4-2.6c1.5-0.6,3.1-0.9,4.7-0.9
			c3.7,0,6.7,1.1,8.8,3.4c2.2,2.3,3.2,5.6,3.2,10.1c0,0.4,0,0.9-0.1,1.4c0,0.5-0.1,1-0.1,1.4h-16.9c0.2,1.5,0.9,2.7,2.1,3.6
			c1.3,0.9,3,1.3,5.1,1.3c1.4,0,2.7-0.1,4-0.4c1.3-0.2,2.4-0.6,3.2-0.9l1,6c-0.4,0.2-0.9,0.4-1.6,0.6c-0.7,0.2-1.4,0.4-2.2,0.5
			c-0.8,0.1-1.7,0.3-2.6,0.4c-0.9,0.1-1.9,0.2-2.8,0.2c-2.4,0-4.4-0.4-6.2-1c-1.7-0.7-3.2-1.7-4.3-2.9c-1.1-1.2-2-2.7-2.5-4.3
			C402,91.4,401.7,89.6,401.7,87.7z M419.2,84.8c0-0.6-0.1-1.2-0.3-1.8c-0.2-0.6-0.5-1.1-0.8-1.6c-0.4-0.5-0.9-0.8-1.4-1.1
			c-0.6-0.3-1.3-0.4-2.2-0.4c-0.8,0-1.5,0.1-2.1,0.4c-0.6,0.3-1.1,0.7-1.5,1.1c-0.4,0.5-0.7,1-0.9,1.6c-0.2,0.6-0.4,1.2-0.5,1.9
			H419.2z"/>
		<path class="st0" d="M439.7,95.3c1.4,0,2.3-0.1,2.9-0.4c0.6-0.3,0.8-0.8,0.8-1.5c0-0.6-0.4-1.1-1.1-1.6s-1.8-1-3.3-1.5
			c-1.2-0.4-2.2-0.9-3.2-1.3c-0.9-0.5-1.8-1-2.4-1.7c-0.7-0.6-1.2-1.4-1.5-2.3c-0.4-0.9-0.5-2-0.5-3.2c0-2.5,0.9-4.4,2.7-5.8
			c1.8-1.4,4.3-2.1,7.5-2.1c1.6,0,3.1,0.1,4.6,0.4c1.5,0.3,2.6,0.6,3.5,0.9l-1.3,5.8c-0.9-0.3-1.8-0.6-2.8-0.8
			c-1-0.2-2.2-0.3-3.4-0.3c-2.3,0-3.5,0.6-3.5,1.9c0,0.3,0.1,0.6,0.1,0.8c0.1,0.2,0.3,0.5,0.6,0.7c0.3,0.2,0.7,0.5,1.2,0.7
			c0.5,0.3,1.2,0.5,2,0.8c1.6,0.6,3,1.2,4,1.8c1.1,0.6,1.9,1.2,2.5,1.9c0.6,0.7,1,1.4,1.3,2.3c0.2,0.8,0.4,1.8,0.4,2.9
			c0,2.6-1,4.6-2.9,5.9c-1.9,1.3-4.7,2-8.3,2c-2.3,0-4.3-0.2-5.8-0.6c-1.5-0.4-2.6-0.7-3.2-1l1.2-6c1.3,0.5,2.6,0.9,3.9,1.2
			C437,95.1,438.4,95.3,439.7,95.3z"/>
	</g>
</g>
</svg>
